<svg xmlns="http://www.w3.org/2000/svg" version="1.1" xmlns:xlink="http://www.w3.org/1999/xlink" xmlns:svgjs="http://svgjs.dev/svgjs" width="100" height="80"><svg xmlns="http://www.w3.org/2000/svg" width="100" height="80" viewBox="0 0 100 80">
  <!-- Cloud shape -->
  <path d="M80,40 C80,26.7 69.3,16 56,16 C48.9,16 42.5,19.1 38.1,24.1 C35.4,22.8 32.3,22 29,22 C18.5,22 10,30.5 10,41 C10,51.5 18.5,60 29,60 L75,60 C83.8,60 91,52.8 91,44 C91,42.8 90.8,41.6 90.5,40.5 C84.8,40.7 80,40 80,40 Z" fill="#FFFFFF" stroke="#A0A0A0" stroke-width="2"></path>

  <!-- Cloud shading -->
  <path d="M38.1,24.1 C35.4,22.8 32.3,22 29,22 C18.5,22 10,30.5 10,41 C10,51.5 18.5,60 29,60 L75,60 C83.8,60 91,52.8 91,44 C91,42.8 90.8,41.6 90.5,40.5" fill="none" stroke="#D0D0D0" stroke-width="1" opacity="0.5"></path>

  <!-- Highlight on top of cloud -->
  <path d="M80,40 C80,26.7 69.3,16 56,16 C48.9,16 42.5,19.1 38.1,24.1" fill="none" stroke="#FFFFFF" stroke-width="2" opacity="0.7"></path>
</svg><style>@media (prefers-color-scheme: light) { :root { filter: contrast(1) brightness(0.1); } }
@media (prefers-color-scheme: dark) { :root { filter: none; } }
</style></svg>